<?xml version="1.0" encoding="UTF-8" standalone="no"?>
<svg
   xmlns:dc="http://purl.org/dc/elements/1.1/"
   xmlns:cc="http://creativecommons.org/ns#"
   xmlns:rdf="http://www.w3.org/1999/02/22-rdf-syntax-ns#"
   xmlns:svg="http://www.w3.org/2000/svg"
   xmlns="http://www.w3.org/2000/svg"
   xmlns:sodipodi="http://sodipodi.sourceforge.net/DTD/sodipodi-0.dtd"
   xmlns:inkscape="http://www.inkscape.org/namespaces/inkscape"
   sodipodi:docname="safari-pinned-tab.svg"
   inkscape:version="1.0 (4035a4fb49, 2020-05-01)"
   id="svg8"
   version="1.1"
   viewBox="0 0 210 297"
   height="297mm"
   width="210mm">
  <defs
     id="defs2" />
  <sodipodi:namedview
     inkscape:window-maximized="1"
     inkscape:window-y="42"
     inkscape:window-x="12"
     inkscape:window-height="1022"
     inkscape:window-width="1892"
     showgrid="false"
     inkscape:document-rotation="0"
     inkscape:current-layer="layer1"
     inkscape:document-units="mm"
     inkscape:cy="560"
     inkscape:cx="400"
     inkscape:zoom="1"
     inkscape:pageshadow="2"
     inkscape:pageopacity="0.0"
     borderopacity="1.0"
     bordercolor="#666666"
     pagecolor="#ffffff"
     id="base" />
  <metadata
     id="metadata5">
    <rdf:RDF>
      <cc:Work
         rdf:about="">
        <dc:format>image/svg+xml</dc:format>
        <dc:type
           rdf:resource="http://purl.org/dc/dcmitype/StillImage" />
        <dc:title></dc:title>
      </cc:Work>
    </rdf:RDF>
  </metadata>
  <g
     id="layer1"
     inkscape:groupmode="layer"
     inkscape:label="Camada 1">
    <path
       id="path899"
       d="m 83.27101,114.19999 c -0.43448,0.0789 -0.87026,0.43038 -1.24883,0.64672 l -2.476499,1.41514 c -0.432054,0.24687 -1.056746,0.47681 -1.377696,0.86498 -0.261747,0.31655 -0.188616,0.77872 -0.188637,1.16097 0,0.25519 0.02576,0.46707 -0.213657,0.61835 -1.122764,0.7094 -2.316141,1.32617 -3.469343,1.98515 -0.423439,0.24196 -1.123823,0.48641 -1.311678,0.9738 -0.156974,0.40729 -0.06416,0.96664 -0.06416,1.39687 v 2.8575 c 0,0.4129 0.09163,0.95074 -0.01761,1.3494 -0.0482,0.17587 -0.261656,0.2584 -0.405729,0.34095 -0.304328,0.17439 -0.670914,0.33361 -0.810279,0.6804 -0.161293,0.40132 -0.05755,0.99094 -0.05755,1.41808 v 3.1115 c 0,0.44884 -0.127851,1.1313 0.127709,1.52303 0.261652,0.40107 0.885672,0.62541 1.290457,0.85674 l 2.645834,1.5149 c 0.377423,0.21569 0.830601,0.58843 1.27,0.64241 0.388874,0.0476 0.738949,-0.22924 1.058333,-0.41106 0.160105,-0.091 0.337714,-0.22606 0.529167,-0.15536 0.382947,0.14139 0.745659,0.41677 1.100668,0.61764 0.78543,0.44408 1.56608,0.89683 2.3495,1.34451 0.51871,0.29633 1.04004,0.72771 1.67217,0.6151 0.44259,-0.0787 0.92456,-0.48133 1.31233,-0.70294 l 2.18017,-1.24884 c 0.35759,-0.20425 0.71907,-0.46397 1.10066,-0.61912 0.20229,-0.0823 0.37982,0.0531 0.55034,0.15049 0.31731,0.18119 0.67191,0.45869 1.05833,0.40873 0.45464,-0.0591 0.92113,-0.44513 1.31233,-0.66887 l 2.7305,-1.56019 c 0.39836,-0.22763 1.04415,-0.45828 1.22915,-0.91021 0.0792,-0.19304 0.062,-0.40962 0.062,-0.61379 v -0.99483 -2.89984 c 0,-0.4225 0.0919,-0.97205 -0.0436,-1.37583 -0.12213,-0.36402 -0.49382,-0.53075 -0.80306,-0.70758 -0.22162,-0.12666 -0.43413,-0.21601 -0.44323,-0.4992 -0.0428,-1.3375 -0.001,-2.68315 -0.001,-4.02139 0,-0.48224 0.13885,-1.22191 -0.17272,-1.62812 -0.2667,-0.34793 -0.78719,-0.54423 -1.16078,-0.75766 l -2.49767,-1.42724 c -0.34802,-0.19886 -0.86752,-0.38549 -1.14078,-0.6807 -0.12298,-0.13284 -0.0869,-0.35636 -0.0869,-0.52278 -2e-5,-0.36343 0.069,-0.80784 -0.15731,-1.12031 -0.27049,-0.37344 -0.84762,-0.58485 -1.23969,-0.80888 l -2.77283,-1.58447 c -0.40771,-0.233 -0.91963,-0.66468 -1.41817,-0.57415 m 3.13267,3.45281 c -0.70976,0.37442 -1.39876,0.79325 -2.0955,1.19139 -0.23791,0.13595 -0.60814,0.45273 -0.889,0.45273 -0.28086,0 -0.65109,-0.31678 -0.889,-0.45273 -0.69672,-0.39814 -1.38574,-0.81697 -2.0955,-1.19139 v -0.0423 c 0.70703,-0.35835 1.38614,-0.783 2.07433,-1.17627 0.24772,-0.14155 0.59999,-0.4417 0.889,-0.46378 0.25874,-0.0198 0.60905,0.27962 0.8255,0.40332 0.43769,0.25011 0.87317,0.50445 1.31234,0.75189 0.29106,0.164 0.60989,0.31324 0.86783,0.52717 m -3.78883,6.5405 c -0.74729,-0.3227 -1.45229,-0.81172 -2.159,-1.21558 -0.22465,-0.12835 -0.68019,-0.28437 -0.80779,-0.51839 -0.131845,-0.24179 -0.0389,-0.72583 -0.0389,-0.99653 v -2.413 c 0.75426,0.32246 1.47092,0.8149 2.18017,1.2267 0.22335,0.12968 0.66578,0.28031 0.78662,0.52002 0.12835,0.25457 0.0389,0.7243 0.0389,1.00495 v 2.39183 m 4.61433,-5.1435 v 2.43417 c 0,0.26427 0.0911,0.73876 -0.0389,0.97439 -0.12863,0.23319 -0.58378,0.38726 -0.80778,0.51714 -0.70606,0.40936 -1.41358,0.88506 -2.159,1.2178 v -2.413 c 0,-0.27233 -0.0924,-0.75404 0.0389,-0.99792 0.12662,-0.23518 0.58293,-0.39154 0.80778,-0.52002 0.70849,-0.40486 1.41251,-0.88257 2.159,-1.21256 m -9.249834,1.62984 v 1.7145 c 0,0.29032 -0.04155,0.61969 0.08911,0.88885 0.209212,0.43097 0.807911,0.64459 1.202055,0.87215 0.950279,0.54866 1.904769,1.09032 2.857499,1.63474 0.36934,0.21106 0.84963,0.6136 1.29117,0.6136 0.44164,0 0.92166,-0.40549 1.29117,-0.61662 l 2.8575,-1.63286 c 0.39416,-0.22524 0.99303,-0.44126 1.20205,-0.87107 0.13079,-0.26899 0.0891,-0.59862 0.0891,-0.88879 v -1.7145 c 0.86591,0.35763 1.68432,0.93827 2.49767,1.40305 0.24585,0.14048 0.75967,0.3168 0.89238,0.57747 0.0582,0.11415 0.0389,0.26619 0.0389,0.39014 v 0.78317 2.81517 c -0.54538,-0.30681 -1.08627,-0.62133 -1.62983,-0.93129 -0.2641,-0.15061 -0.55236,-0.36763 -0.86783,-0.37408 -0.31134,-0.006 -0.58778,0.19888 -0.84667,0.34681 l -1.56633,0.89523 -1.9685,1.12771 c -0.31325,0.17899 -0.72462,0.34005 -0.92937,0.65109 -0.25315,0.38458 -0.15013,0.97906 -0.15013,1.41719 v 3.28084 c 0,0.44141 -0.11297,1.07365 0.14319,1.46007 0.18297,0.27604 0.50974,0.41889 0.78814,0.57798 0.50127,0.28647 1.00607,0.56756 1.50283,0.86178 -0.74932,0.53234 -1.61582,0.9398 -2.413,1.39721 -0.24428,0.14012 -0.66196,0.4989 -0.9525,0.479 -0.31946,-0.0222 -0.72085,-0.36809 -0.99483,-0.52451 -0.7761,-0.44365 -1.55285,-0.88603 -2.32833,-1.33053 v -0.0212 c 0.51075,-0.30247 1.02978,-0.5914 1.54516,-0.88597 0.27898,-0.15943 0.60514,-0.30537 0.77178,-0.59584 0.22492,-0.3921 0.11722,-1.00369 0.11722,-1.43919 v -3.2385 c 0,-0.45756 0.11212,-1.08974 -0.17896,-1.47951 -0.22434,-0.3004 -0.64582,-0.46439 -0.96404,-0.64624 l -2.031996,-1.16114 -1.4605,-0.83458 c -0.24729,-0.14143 -0.507513,-0.3368 -0.804333,-0.33716 -0.325205,-3.8e-4 -0.618088,0.22168 -0.889,0.37649 -0.542713,0.31011 -1.082188,0.62698 -1.629833,0.92831 v -2.8575 -0.762 l 0.03888,-0.38172 0.278765,-0.21396 0.634852,-0.36305 1.566333,-0.89789 0.910167,-0.49288 m 2.053165,8.08566 v 0.0423 c -0.685481,0.40595 -1.382626,0.79309 -2.074332,1.18836 -0.241871,0.13822 -0.604457,0.44805 -0.889,0.45612 -0.273664,0.008 -0.637244,-0.30319 -0.867833,-0.43496 -0.705549,-0.40318 -1.41169,-0.80535 -2.116667,-1.20952 v -0.0423 c 0.716936,-0.3782 1.412896,-0.80132 2.116667,-1.20347 0.229954,-0.1314 0.595122,-0.44378 0.867833,-0.43601 0.283739,0.008 0.647636,0.31925 0.889,0.45718 0.690816,0.39473 1.377252,0.79874 2.074332,1.1823 m 12.72117,0 v 0.0423 c -0.70506,0.40417 -1.41112,0.80634 -2.11667,1.20952 -0.23059,0.13177 -0.59417,0.44268 -0.86783,0.43496 -0.28455,-0.008 -0.64713,-0.3179 -0.889,-0.45612 -0.69171,-0.39527 -1.38885,-0.78241 -2.07433,-1.18836 v -0.0423 c 0.71132,-0.39139 1.41175,-0.80369 2.11666,-1.2065 0.22792,-0.13024 0.59688,-0.44587 0.86784,-0.43275 0.28591,0.0138 0.64505,0.32057 0.889,0.45997 0.68874,0.39356 1.36673,0.82064 2.07433,1.17928 m -16.510002,6.58284 c -0.739225,-0.36225 -1.444286,-0.81323 -2.159,-1.22162 -0.226293,-0.1293 -0.68434,-0.28657 -0.807784,-0.52671 -0.129307,-0.2515 -0.03888,-0.72502 -0.03888,-1.00334 v -2.39183 c 0.757301,0.29559 1.474534,0.81538 2.180167,1.21858 0.22098,0.12628 0.663935,0.27834 0.786617,0.51137 0.130365,0.24758 0.03888,0.72532 0.03888,1.00055 v 2.413 m 4.635502,-5.1435 v 2.39183 c 0,0.27832 0.0904,0.75184 -0.0389,1.00334 -0.12349,0.24024 -0.58147,0.39724 -0.80779,0.52673 -0.712466,0.40774 -1.41539,0.87345 -2.158996,1.2216 v -2.413 c 0,-0.27398 -0.09195,-0.75381 0.03888,-0.99977 0.123,-0.23127 0.566526,-0.38335 0.786617,-0.50912 0.710375,-0.40591 1.423779,-0.90919 2.180169,-1.22161 m 8.08567,5.1435 c -0.74494,-0.33831 -1.44869,-0.8127 -2.159,-1.21859 -0.22403,-0.12804 -0.67956,-0.28391 -0.80779,-0.51636 -0.12998,-0.23563 -0.0389,-0.71012 -0.0389,-0.97439 v -2.43416 c 0.75512,0.31189 1.47409,0.81263 2.18017,1.22324 0.21992,0.12789 0.66222,0.27826 0.78661,0.50933 0.13132,0.24389 0.0389,0.7256 0.0389,0.99793 v 2.413 m 4.6355,-5.1435 v 2.39183 c 0,0.27671 0.091,0.75224 -0.0389,1.00173 -0.12424,0.23914 -0.58166,0.39607 -0.80772,0.5253 -0.71543,0.40879 -1.41899,0.86201 -2.159,1.22464 v -2.413 c 0,-0.27523 -0.0915,-0.75297 0.0389,-1.00055 0.12269,-0.23303 0.56564,-0.38509 0.78662,-0.51137 0.7057,-0.4032 1.42282,-0.92299 2.18017,-1.21858 z"
       style="fill:#020202;stroke:none;stroke-width:0.0211667" />
  </g>
</svg>
